HIERARCHY
ROOT mixamorig:Hips
{
	OFFSET -0.000008 104.274872 1.554316
	CHANNELS 6 Xposition Yposition Zposition Xrotation Yrotation Zrotation
	JOINT mixamorig:Spine
	{
		OFFSET -0.000005 10.181595 0.131519
		CHANNELS 6 Xposition Yposition Zposition Xrotation Yrotation Zrotation
		JOINT mixamorig:Spine1
		{
			OFFSET -0.000000 9.893959 -1.470707
			CHANNELS 6 Xposition Yposition Zposition Xrotation Yrotation Zrotation
			JOINT mixamorig:Spine2
			{
				OFFSET -0.000000 9.220757 -1.370641
				CHANNELS 6 Xposition Yposition Zposition Xrotation Yrotation Zrotation
				JOINT mixamorig:Neck
				{
					OFFSET 0.000001 16.740417 -2.049036
					CHANNELS 6 Xposition Yposition Zposition Xrotation Yrotation Zrotation
					JOINT mixamorig:Head
					{
						OFFSET 0.000000 9.617874 1.685006
						CHANNELS 6 Xposition Yposition Zposition Xrotation Yrotation Zrotation
						JOINT mixamorig:HeadTop_End
						{
							OFFSET 0.000002 22.037354 7.501101
							CHANNELS 6 Xposition Yposition Zposition Xrotation Yrotation Zrotation
							End Site
							{
								OFFSET 0.000168 2310.654297 -282.823242
							}
						}
					}
				}
				JOINT mixamorig:RightShoulder
				{
					OFFSET -4.569970 11.014908 -2.160885
					CHANNELS 6 Xposition Yposition Zposition Xrotation Yrotation Zrotation
					JOINT mixamorig:RightArm
					{
						OFFSET -10.592851 -0.524811 -2.232101
						CHANNELS 6 Xposition Yposition Zposition Xrotation Yrotation Zrotation
						JOINT mixamorig:RightForeArm
						{
							OFFSET -27.841511 0.000031 -0.000004
							CHANNELS 6 Xposition Yposition Zposition Xrotation Yrotation Zrotation
							JOINT mixamorig:RightHand
							{
								OFFSET -28.328831 -0.000015 0.000015
								CHANNELS 6 Xposition Yposition Zposition Xrotation Yrotation Zrotation
								JOINT mixamorig:RightHandThumb1
								{
									OFFSET -2.464806 -1.573990 2.681852
									CHANNELS 6 Xposition Yposition Zposition Xrotation Yrotation Zrotation
									JOINT mixamorig:RightHandThumb2
									{
										OFFSET -3.215179 -1.872803 1.924282
										CHANNELS 6 Xposition Yposition Zposition Xrotation Yrotation Zrotation
										JOINT mixamorig:RightHandThumb3
										{
											OFFSET -2.654831 -1.527969 1.512609
											CHANNELS 6 Xposition Yposition Zposition Xrotation Yrotation Zrotation
											JOINT mixamorig:RightHandThumb4
											{
												OFFSET -2.018814 -1.152008 1.108052
												CHANNELS 6 Xposition Yposition Zposition Xrotation Yrotation Zrotation
												End Site
												{
													OFFSET -188.809540 -114.533607 132.431396
												}
											}
										}
									}
								}
								JOINT mixamorig:RightHandIndex1
								{
									OFFSET -9.108284 -0.517868 2.259835
									CHANNELS 6 Xposition Yposition Zposition Xrotation Yrotation Zrotation
									JOINT mixamorig:RightHandIndex2
									{
										OFFSET -3.699989 0.000000 0.001215
										CHANNELS 6 Xposition Yposition Zposition Xrotation Yrotation Zrotation
										JOINT mixamorig:RightHandIndex3
										{
											OFFSET -2.850006 0.000031 -0.000522
											CHANNELS 6 Xposition Yposition Zposition Xrotation Yrotation Zrotation
											JOINT mixamorig:RightHandIndex4
											{
												OFFSET -2.772186 -0.000015 -0.000020
												CHANNELS 6 Xposition Yposition Zposition Xrotation Yrotation Zrotation
												End Site
												{
													OFFSET -277.218445 0.000000 -0.050231
												}
											}
										}
									}
								}
								JOINT mixamorig:RightHandMiddle1
								{
									OFFSET -9.532516 -0.000031 -0.000023
									CHANNELS 6 Xposition Yposition Zposition Xrotation Yrotation Zrotation
									JOINT mixamorig:RightHandMiddle2
									{
										OFFSET -3.700005 -0.000015 0.003713
										CHANNELS 6 Xposition Yposition Zposition Xrotation Yrotation Zrotation
										JOINT mixamorig:RightHandMiddle3
										{
											OFFSET -2.949974 0.000015 -0.002054
											CHANNELS 6 Xposition Yposition Zposition Xrotation Yrotation Zrotation
											JOINT mixamorig:RightHandMiddle4
											{
												OFFSET -2.946640 0.000000 -0.000156
												CHANNELS 6 Xposition Yposition Zposition Xrotation Yrotation Zrotation
												End Site
												{
													OFFSET -294.664337 0.000000 -0.113670
												}
											}
										}
									}
								}
								JOINT mixamorig:RightHandRing1
								{
									OFFSET -9.103600 -0.043076 -1.865134
									CHANNELS 6 Xposition Yposition Zposition Xrotation Yrotation Zrotation
									JOINT mixamorig:RightHandRing2
									{
										OFFSET -3.379288 0.000000 -0.001055
										CHANNELS 6 Xposition Yposition Zposition Xrotation Yrotation Zrotation
										JOINT mixamorig:RightHandRing3
										{
											OFFSET -2.889687 -0.000015 0.000379
											CHANNELS 6 Xposition Yposition Zposition Xrotation Yrotation Zrotation
											JOINT mixamorig:RightHandRing4
											{
												OFFSET -2.638809 -0.000015 0.000941
												CHANNELS 6 Xposition Yposition Zposition Xrotation Yrotation Zrotation
												End Site
												{
													OFFSET -263.880371 0.000000 0.516020
												}
											}
										}
									}
								}
								JOINT mixamorig:RightHandPinky1
								{
									OFFSET -8.076683 -0.486710 -3.806280
									CHANNELS 6 Xposition Yposition Zposition Xrotation Yrotation Zrotation
									JOINT mixamorig:RightHandPinky2
									{
										OFFSET -3.600014 -0.000015 -0.003747
										CHANNELS 6 Xposition Yposition Zposition Xrotation Yrotation Zrotation
										JOINT mixamorig:RightHandPinky3
										{
											OFFSET -2.099983 0.000000 -0.005739
											CHANNELS 6 Xposition Yposition Zposition Xrotation Yrotation Zrotation
											JOINT mixamorig:RightHandPinky4
											{
												OFFSET -2.115768 -0.000031 -0.003680
												CHANNELS 6 Xposition Yposition Zposition Xrotation Yrotation Zrotation
												End Site
												{
													OFFSET -211.577087 0.000000 -0.350686
												}
											}
										}
									}
								}
							}
						}
					}
				}
				JOINT mixamorig:LeftShoulder
				{
					OFFSET 4.570447 11.014725 -2.160855
					CHANNELS 6 Xposition Yposition Zposition Xrotation Yrotation Zrotation
					JOINT mixamorig:LeftArm
					{
						OFFSET 10.592371 -0.524597 -2.232119
						CHANNELS 6 Xposition Yposition Zposition Xrotation Yrotation Zrotation
						JOINT mixamorig:LeftForeArm
						{
							OFFSET 27.841532 -0.000031 0.000026
							CHANNELS 6 Xposition Yposition Zposition Xrotation Yrotation Zrotation
							JOINT mixamorig:LeftHand
							{
								OFFSET 28.328846 -0.000061 0.000022
								CHANNELS 6 Xposition Yposition Zposition Xrotation Yrotation Zrotation
								JOINT mixamorig:LeftHandThumb1
								{
									OFFSET 2.466141 -1.576172 2.681732
									CHANNELS 6 Xposition Yposition Zposition Xrotation Yrotation Zrotation
									JOINT mixamorig:LeftHandThumb2
									{
										OFFSET 3.217812 -1.872070 1.916482
										CHANNELS 6 Xposition Yposition Zposition Xrotation Yrotation Zrotation
										JOINT mixamorig:LeftHandThumb3
										{
											OFFSET 2.656029 -1.528778 1.514513
											CHANNELS 6 Xposition Yposition Zposition Xrotation Yrotation Zrotation
											JOINT mixamorig:LeftHandThumb4
											{
												OFFSET 2.020889 -1.154053 1.115139
												CHANNELS 6 Xposition Yposition Zposition Xrotation Yrotation Zrotation
												End Site
												{
													OFFSET 190.885437 -115.081749 130.048782
												}
											}
										}
									}
								}
								JOINT mixamorig:LeftHandIndex1
								{
									OFFSET 9.109314 -0.518021 2.259871
									CHANNELS 6 Xposition Yposition Zposition Xrotation Yrotation Zrotation
									JOINT mixamorig:LeftHandIndex2
									{
										OFFSET 3.699989 0.000000 -0.000322
										CHANNELS 6 Xposition Yposition Zposition Xrotation Yrotation Zrotation
										JOINT mixamorig:LeftHandIndex3
										{
											OFFSET 2.850006 0.000000 0.000352
											CHANNELS 6 Xposition Yposition Zposition Xrotation Yrotation Zrotation
											JOINT mixamorig:LeftHandIndex4
											{
												OFFSET 2.774864 -0.000031 -0.000027
												CHANNELS 6 Xposition Yposition Zposition Xrotation Yrotation Zrotation
												End Site
												{
													OFFSET 277.486267 0.000000 -0.009857
												}
											}
										}
									}
								}
								JOINT mixamorig:LeftHandMiddle1
								{
									OFFSET 9.533394 0.000061 0.000044
									CHANNELS 6 Xposition Yposition Zposition Xrotation Yrotation Zrotation
									JOINT mixamorig:LeftHandMiddle2
									{
										OFFSET 3.699989 -0.000015 -0.000231
										CHANNELS 6 Xposition Yposition Zposition Xrotation Yrotation Zrotation
										JOINT mixamorig:LeftHandMiddle3
										{
											OFFSET 2.949997 -0.000015 -0.000059
											CHANNELS 6 Xposition Yposition Zposition Xrotation Yrotation Zrotation
											JOINT mixamorig:LeftHandMiddle4
											{
												OFFSET 2.952896 0.000031 0.000063
												CHANNELS 6 Xposition Yposition Zposition Xrotation Yrotation Zrotation
												End Site
												{
													OFFSET 295.289337 0.000000 0.022810
												}
											}
										}
									}
								}
								JOINT mixamorig:LeftHandRing1
								{
									OFFSET 9.104523 -0.042999 -1.865074
									CHANNELS 6 Xposition Yposition Zposition Xrotation Yrotation Zrotation
									JOINT mixamorig:LeftHandRing2
									{
										OFFSET 3.150009 -0.000031 0.000043
										CHANNELS 6 Xposition Yposition Zposition Xrotation Yrotation Zrotation
										JOINT mixamorig:LeftHandRing3
										{
											OFFSET 2.949982 -0.000015 0.000040
											CHANNELS 6 Xposition Yposition Zposition Xrotation Yrotation Zrotation
											JOINT mixamorig:LeftHandRing4
											{
												OFFSET 2.644348 0.000000 0.000057
												CHANNELS 6 Xposition Yposition Zposition Xrotation Yrotation Zrotation
												End Site
												{
													OFFSET 264.434631 0.000000 0.012105
												}
											}
										}
									}
								}
								JOINT mixamorig:LeftHandPinky1
								{
									OFFSET 8.077789 -0.486847 -3.806259
									CHANNELS 6 Xposition Yposition Zposition Xrotation Yrotation Zrotation
									JOINT mixamorig:LeftHandPinky2
									{
										OFFSET 3.599953 0.000031 0.014727
										CHANNELS 6 Xposition Yposition Zposition Xrotation Yrotation Zrotation
										JOINT mixamorig:LeftHandPinky3
										{
											OFFSET 2.100021 0.000015 0.007705
											CHANNELS 6 Xposition Yposition Zposition Xrotation Yrotation Zrotation
											JOINT mixamorig:LeftHandPinky4
											{
												OFFSET 2.125504 0.000031 0.007517
												CHANNELS 6 Xposition Yposition Zposition Xrotation Yrotation Zrotation
												End Site
												{
													OFFSET 212.550781 0.000000 0.625752
												}
											}
										}
									}
								}
							}
						}
					}
				}
			}
		}
	}
	JOINT mixamorig:RightUpLeg
	{
		OFFSET -8.207787 -6.751648 -1.599560
		CHANNELS 6 Xposition Yposition Zposition Xrotation Yrotation Zrotation
		JOINT mixamorig:RightLeg
		{
			OFFSET -0.000002 -44.370117 0.345942
			CHANNELS 6 Xposition Yposition Zposition Xrotation Yrotation Zrotation
			JOINT mixamorig:RightFoot
			{
				OFFSET 0.000003 -44.423679 -3.043532
				CHANNELS 6 Xposition Yposition Zposition Xrotation Yrotation Zrotation
				JOINT mixamorig:RightToeBase
				{
					OFFSET -0.000002 -8.728671 10.710558
					CHANNELS 6 Xposition Yposition Zposition Xrotation Yrotation Zrotation
					JOINT mixamorig:RightToe_End
					{
						OFFSET -0.000001 -0.000679 9.278119
						CHANNELS 6 Xposition Yposition Zposition Xrotation Yrotation Zrotation
						End Site
						{
							OFFSET 0.000000 -0.067690 927.812134
						}
					}
				}
			}
		}
	}
	JOINT mixamorig:LeftUpLeg
	{
		OFFSET 8.207793 -6.751686 -1.599556
		CHANNELS 6 Xposition Yposition Zposition Xrotation Yrotation Zrotation
		JOINT mixamorig:LeftLeg
		{
			OFFSET -0.000004 -44.370014 0.346954
			CHANNELS 6 Xposition Yposition Zposition Xrotation Yrotation Zrotation
			JOINT mixamorig:LeftFoot
			{
				OFFSET -0.000001 -44.423672 -3.044401
				CHANNELS 6 Xposition Yposition Zposition Xrotation Yrotation Zrotation
				JOINT mixamorig:LeftToeBase
				{
					OFFSET -0.000002 -8.728669 10.710558
					CHANNELS 6 Xposition Yposition Zposition Xrotation Yrotation Zrotation
					JOINT mixamorig:LeftToe_End
					{
						OFFSET -0.000003 -0.000679 9.278133
						CHANNELS 6 Xposition Yposition Zposition Xrotation Yrotation Zrotation
						End Site
						{
							OFFSET 0.000000 -0.068021 927.813477
						}
					}
				}
			}
		}
	}
}
MOTION
Frames: 3
Frame Time: 0.033333
0.000006 104.270477 1.554256 0.000010 0.000003 -0.000113 -0.000005 10.181587 0.131522 0.000001 -0.000003 0.000084 -0.000000 9.893967 -1.470711 0.000001 0.000000 -0.000000 -0.000000 9.220802 -1.370642 0.000000 -0.000000 -0.000000 0.000001 16.740433 -2.049030 0.000000 -0.000000 -0.000000 0.000000 9.617859 1.685014 0.000000 0.000000 0.000000 0.000002 22.037384 7.501101 0.000000 -0.000000 0.000000 -4.569968 11.014880 -2.160881 0.000008 0.000001 -0.000038 -10.592880 -0.524711 -2.231975 73.345775 15.404932 -11.501982 -27.841511 0.000008 0.000535 -50.645214 112.252991 70.357744 -28.328829 0.000022 0.000024 -0.000322 -0.000046 0.000007 -2.464384 -1.573844 2.682337 -40.386550 -153.494664 5.576362 -3.215201 -1.872460 1.924599 143.559880 33.670504 44.558184 -2.654956 -1.527875 1.513069 150.855506 27.637459 -25.242439 -2.018826 -1.152002 1.108064 0.000000 -0.000001 0.000002 -9.108361 -0.517563 2.260115 97.374093 16.508552 -18.797758 -3.700084 0.000312 0.001510 95.884791 14.643350 -16.183756 -2.850083 0.000348 -0.000263 94.974368 11.697693 -12.750662 -2.772146 -0.000016 -0.000016 -0.000004 0.000001 -0.000001 -9.532570 0.000268 0.000268 98.308368 15.972947 -18.598733 -3.700082 0.000316 0.003993 99.594991 12.692082 -14.880797 -2.950060 0.000318 -0.001739 101.633024 11.429751 -13.990446 -2.946624 -0.000015 -0.000154 -0.000000 -0.000000 -0.000000 -9.103697 -0.042761 -1.864855 98.870472 18.012539 -20.926964 -3.379310 0.000311 -0.000764 100.832491 9.819572 -11.884278 -2.889758 0.000342 0.000701 106.686080 6.429754 -8.693303 -2.638802 -0.000023 0.000942 0.000000 0.000001 -0.000003 -8.076743 -0.486388 -3.805990 89.913860 19.431859 -19.249799 -3.600039 0.000286 -0.003500 94.281035 8.554115 -8.832813 -2.099980 0.000323 -0.005485 98.225073 3.924750 -4.285216 -2.115769 -0.000039 -0.003671 0.000002 -0.000000 -0.000003 4.570446 11.014691 -2.160851 -0.000018 0.000010 -0.000021 10.592481 -0.524594 -2.232338 18.159854 -73.331493 13.569688 27.841721 -0.000071 -0.000066 231.349053 -66.716222 252.274758 28.328831 -0.000026 0.000015 0.000016 -0.000089 0.000000 2.466029 -1.576200 2.681890 -199.702382 54.028408 151.114793 3.217806 -1.872041 1.916542 -144.675961 43.159245 81.302563 2.656117 -1.528737 1.514621 -137.395949 23.707214 62.140399 2.020887 -1.154075 1.115147 0.000002 -0.000002 0.000001 9.109188 -0.517751 2.260090 231.497514 -20.944739 318.071746 3.699813 0.000004 -0.000210 183.079847 -19.593721 -162.234123 2.850116 0.000322 0.000323 -212.227542 -8.265306 28.079138 2.774880 -0.000046 -0.000020 -0.000000 0.000002 -0.000000 9.533110 0.000217 0.000177 191.442853 -16.685558 248.671369 3.699680 0.000154 -0.000128 186.530158 -11.517994 -121.018385 2.949711 0.000222 0.000021 -175.656455 -5.392814 -102.310230 2.952871 -0.000032 0.000065 -0.000003 0.000000 0.000001 9.104692 -0.042770 -1.865085 149.903104 -16.410096 416.417919 3.150001 0.000178 -0.000151 70.831855 0.980975 -0.696489 2.949944 0.000091 -0.000121 43.622045 16.342227 -6.577217 2.644324 0.000010 0.000058 -0.000003 0.000002 -0.000003 8.077900 -0.486598 -3.806280 150.460011 -9.822024 398.282319 3.599905 0.000208 0.014516 436.927857 14.019635 -10.913287 2.099951 0.000117 0.007539 42.376215 23.270567 -9.073011 2.125516 -0.000032 0.007523 0.000001 0.000001 -0.000002 -8.207786 -6.751667 -1.599560 -0.077001 -0.000003 0.000080 -0.000002 -44.370110 0.345938 0.153719 -0.000000 -0.000000 0.000000 -44.423679 -3.043532 -0.076700 0.000000 -0.000002 -0.000006 -8.728667 10.710559 -0.000009 -0.000000 -0.000000 -0.000001 -0.000679 9.278123 0.000000 -0.000000 -0.000000 8.207792 -6.751710 -1.599556 -0.074518 -0.000003 0.000081 -0.000002 -44.370014 0.346960 0.148822 0.000002 0.000000 -0.000001 -44.423664 -3.044403 -0.074314 0.000000 -0.000002 -0.000004 -8.728671 10.710558 0.000007 -0.000000 -0.000000 0.000000 -0.000680 9.278137 -0.000000 0.000000 -0.000001 
0.000006 104.270477 1.554256 0.000010 0.000003 -0.000113 -0.000005 10.181587 0.131522 0.000001 -0.000003 0.000084 -0.000000 9.893967 -1.470711 0.000001 0.000000 -0.000000 -0.000000 9.220802 -1.370642 0.000000 -0.000000 -0.000000 0.000001 16.740433 -2.049030 0.000000 -0.000000 -0.000000 0.000000 9.617859 1.685014 0.000000 0.000000 0.000000 0.000002 22.037384 7.501101 0.000000 -0.000000 0.000000 -4.569968 11.014880 -2.160881 0.000008 0.000001 -0.000038 -10.592878 -0.524700 -2.231985 73.273395 14.481043 -10.794639 -27.841511 -0.000009 0.000551 -50.584091 111.268665 69.288704 -28.328842 0.000020 0.000028 -0.000320 -0.000045 0.000006 -2.464394 -1.573837 2.682357 -39.978668 -153.297258 6.375580 -3.215211 -1.872486 1.924612 144.300204 33.901169 43.498726 -2.654967 -1.527882 1.513059 151.081571 27.368710 -27.213031 -2.018834 -1.152016 1.108070 -0.000006 -0.000002 -0.000001 -9.108390 -0.517557 2.260122 97.794116 16.621472 -19.063434 -3.700082 0.000326 0.001503 95.857300 14.478112 -15.993708 -2.850095 0.000363 -0.000268 94.230601 11.488928 -12.362598 -2.772171 -0.000017 -0.000015 -0.000002 0.000001 -0.000000 -9.532589 0.000272 0.000266 98.126746 15.958448 -18.523649 -3.700098 0.000332 0.003994 99.766729 12.270881 -14.428592 -2.950053 0.000319 -0.001763 101.351169 11.136758 -13.565132 -2.946631 0.000001 -0.000155 -0.000000 0.000001 -0.000000 -9.103707 -0.042757 -1.864829 98.194775 17.665533 -20.287048 -3.379336 0.000324 -0.000766 100.547276 9.281339 -11.178815 -2.889751 0.000360 0.000662 106.121824 6.162410 -8.249870 -2.638799 -0.000004 0.000942 -0.000000 -0.000000 -0.000001 -8.076747 -0.486395 -3.806004 89.017138 19.324072 -18.850395 -3.600031 0.000297 -0.003488 94.123087 8.217520 -8.448744 -2.100008 0.000328 -0.005448 98.322199 3.695377 -4.028151 -2.115773 -0.000013 -0.003679 -0.000000 0.000002 -0.000001 4.570446 11.014691 -2.160851 -0.000018 0.000010 -0.000021 10.592479 -0.524591 -2.232339 17.464001 -72.972969 12.961775 27.841724 -0.000061 -0.000070 231.065573 -67.281714 251.345634 28.328825 -0.000040 0.000015 0.000020 -0.000089 -0.000000 2.466032 -1.576191 2.681890 -198.754571 55.759813 150.614878 3.217799 -1.872025 1.916531 -140.862133 43.251630 77.838420 2.656100 -1.528717 1.514612 -135.325145 22.181080 59.449871 2.020879 -1.154070 1.115135 0.000003 0.000001 0.000004 9.109191 -0.517755 2.260102 232.761154 -20.939468 319.140179 3.699780 0.000035 -0.000222 184.326028 -19.571656 -155.234750 2.850134 0.000322 0.000315 -210.354390 -8.232727 29.712143 2.774897 -0.000031 -0.000044 0.000001 0.000002 -0.000001 9.533122 0.000254 0.000178 192.454309 -16.342544 254.453834 3.699707 0.000180 -0.000129 187.565587 -11.477107 -113.321028 2.949726 0.000254 0.000030 -174.625999 -5.399097 -90.267309 2.952874 -0.000031 0.000063 -0.000000 0.000000 -0.000000 9.104671 -0.042781 -1.865092 150.251703 -16.004667 415.792410 3.149986 0.000178 -0.000107 70.370893 1.201450 -0.846032 2.949947 0.000095 -0.000118 42.035740 16.420473 -6.345846 2.644327 0.000041 0.000064 -0.000003 0.000003 -0.000001 8.077898 -0.486559 -3.806283 151.355257 -9.346429 397.756476 3.599905 0.000208 0.014497 436.333029 14.719637 -11.356783 2.099939 0.000095 0.007540 40.264047 23.531752 -8.686508 2.125500 -0.000058 0.007528 0.000004 -0.000000 0.000001 -8.207786 -6.751667 -1.599560 -0.077001 -0.000003 0.000080 -0.000002 -44.370110 0.345938 0.153719 -0.000000 -0.000000 0.000000 -44.423679 -3.043532 -0.076700 0.000000 -0.000002 -0.000006 -8.728667 10.710559 -0.000009 -0.000000 -0.000000 -0.000001 -0.000679 9.278123 0.000000 -0.000000 -0.000000 8.207792 -6.751710 -1.599556 -0.074518 -0.000003 0.000081 -0.000002 -44.370014 0.346960 0.148822 0.000002 0.000000 -0.000001 -44.423664 -3.044403 -0.074314 0.000000 -0.000002 -0.000004 -8.728671 10.710558 0.000007 -0.000000 -0.000000 0.000000 -0.000680 9.278137 -0.000000 0.000000 -0.000001 
0.000006 104.270477 1.554256 0.000010 0.000003 -0.000113 -0.000005 10.181587 0.131522 0.000001 -0.000003 0.000084 -0.000000 9.893967 -1.470711 0.000001 0.000000 -0.000000 -0.000000 9.220802 -1.370642 0.000000 -0.000000 -0.000000 0.000001 16.740433 -2.049030 0.000000 -0.000000 -0.000000 0.000000 9.617859 1.685014 0.000000 0.000000 0.000000 0.000002 22.037384 7.501101 0.000000 -0.000000 0.000000 -4.569968 11.014880 -2.160881 0.000008 0.000001 -0.000038 -10.592883 -0.524714 -2.231968 73.196166 17.609083 -13.123005 -27.841513 0.000026 0.000541 -50.523357 110.421189 68.369729 -28.328823 0.000022 0.000031 -0.000317 -0.000043 0.000008 -2.464407 -1.573872 2.682338 -39.868463 -152.893785 6.478396 -3.215223 -1.872486 1.924608 143.134646 33.647844 46.412034 -2.654964 -1.527866 1.513081 150.895039 27.432546 -26.875630 -2.018845 -1.151998 1.108065 -0.000003 0.000001 -0.000000 -9.108389 -0.517560 2.260118 97.039045 16.256965 -18.406144 -3.700072 0.000315 0.001514 95.513680 14.405839 -15.819545 -2.850087 0.000365 -0.000262 94.779769 11.501265 -12.494468 -2.772172 -0.000001 -0.000015 -0.000003 -0.000000 0.000000 -9.532600 0.000277 0.000275 97.580652 15.380433 -17.692072 -3.700064 0.000334 0.004007 99.443081 12.170944 -14.229755 -2.950066 0.000334 -0.001784 101.626262 11.009377 -13.475617 -2.946621 0.000001 -0.000152 -0.000004 0.000000 0.000002 -9.103712 -0.042756 -1.864857 97.834994 17.303680 -19.749562 -3.379331 0.000330 -0.000781 100.577425 9.143835 -11.019654 -2.889739 0.000346 0.000695 106.512722 6.114579 -8.244565 -2.638809 -0.000002 0.000939 0.000000 -0.000000 0.000000 -8.076757 -0.486399 -3.806010 89.074833 19.132248 -18.680364 -3.600034 0.000292 -0.003497 94.286103 7.899636 -8.132040 -2.100004 0.000330 -0.005479 98.541393 3.495186 -3.812072 -2.115800 -0.000035 -0.003678 -0.000004 0.000003 -0.000003 4.570446 11.014691 -2.160851 -0.000018 0.000010 -0.000021 10.592482 -0.524581 -2.232339 18.026645 -73.661466 13.549813 27.841728 -0.000090 -0.000067 231.240152 -67.896008 250.928938 28.328836 -0.000026 0.000015 0.000020 -0.000089 -0.000002 2.466041 -1.576198 2.681890 -196.053231 55.614508 146.926535 3.217789 -1.872018 1.916551 -141.242315 43.967342 78.671820 2.656105 -1.528737 1.514615 -134.035673 23.999451 59.830531 2.020899 -1.154085 1.115150 0.000004 0.000002 0.000002 9.109189 -0.517761 2.260108 233.945946 -20.523918 320.844503 3.699759 0.000021 -0.000232 184.880189 -19.187825 -151.641169 2.850095 0.000328 0.000319 -212.955996 -8.049952 26.757621 2.774894 -0.000032 -0.000037 -0.000000 0.000001 0.000000 9.533131 0.000274 0.000184 194.326750 -16.662079 261.270636 3.699705 0.000196 -0.000123 188.079695 -11.652291 -110.626839 2.949738 0.000246 0.000036 -174.071005 -5.357575 -84.196521 2.952859 -0.000015 0.000063 0.000001 0.000000 -0.000001 9.104685 -0.042798 -1.865081 151.880048 -16.882607 421.306996 3.149993 0.000166 -0.000116 67.597576 0.938850 -0.627473 2.949954 0.000055 -0.000119 38.375373 16.611211 -5.816215 2.644323 0.000016 0.000063 -0.000002 0.000000 0.000001 8.077909 -0.486583 -3.806279 153.318158 -10.283558 403.991647 3.599907 0.000209 0.014523 434.755037 14.526580 -10.891116 2.099950 0.000041 0.007539 39.618560 23.928384 -8.687437 2.125503 -0.000004 0.007531 -0.000000 -0.000003 0.000000 -8.207786 -6.751667 -1.599560 -0.077001 -0.000003 0.000080 -0.000002 -44.370110 0.345938 0.153719 -0.000000 -0.000000 0.000000 -44.423679 -3.043532 -0.076700 0.000000 -0.000002 -0.000006 -8.728667 10.710559 -0.000009 -0.000000 -0.000000 -0.000001 -0.000679 9.278123 0.000000 -0.000000 -0.000000 8.207792 -6.751710 -1.599556 -0.074518 -0.000003 0.000081 -0.000002 -44.370014 0.346960 0.148822 0.000002 0.000000 -0.000001 -44.423664 -3.044403 -0.074314 0.000000 -0.000002 -0.000004 -8.728671 10.710558 0.000007 -0.000000 -0.000000 0.000000 -0.000680 9.278137 -0.000000 0.000000 -0.000001 
